<svg width="567" height="162" viewBox="0 0 567 162" fill="none" xmlns="http://www.w3.org/2000/svg">
<path d="M160.862 54.344C160.862 53.48 160.79 52.64 160.646 51.824L159.062 51.68C158.198 53.456 157.334 55.016 156.47 56.36C155.654 57.704 154.694 58.832 153.59 59.744C152.486 60.608 151.19 61.256 149.702 61.688C148.262 62.12 146.51 62.336 144.446 62.336C140.846 62.336 137.534 61.592 134.51 60.104C131.534 58.616 128.942 56.624 126.734 54.128C124.526 51.632 122.798 48.776 121.55 45.56C120.35 42.344 119.75 39.008 119.75 35.552C119.75 32.24 120.254 29.24 121.262 26.552C122.318 23.816 123.782 21.512 125.654 19.64C127.574 17.72 129.854 16.232 132.494 15.176C135.182 14.12 138.182 13.592 141.494 13.592C143.51 13.592 145.406 13.856 147.182 14.384C148.958 14.912 150.542 15.704 151.934 16.76C153.326 17.816 154.502 19.136 155.462 20.72C156.422 22.256 157.07 24.056 157.406 26.12C157.502 26.504 157.766 26.696 158.198 26.696C158.678 26.696 158.966 26.504 159.062 26.12C159.446 23.96 159.758 21.8 159.998 19.64C160.238 17.432 160.382 15.224 160.43 13.016C160.43 12.584 160.19 12.368 159.71 12.368C158.51 12.272 157.286 12.152 156.038 12.008C154.79 11.816 153.542 11.624 152.294 11.432C150.614 11.192 148.91 10.976 147.182 10.784C145.454 10.544 143.702 10.424 141.926 10.424C140.39 10.424 138.662 10.52 136.742 10.712C134.87 10.904 132.998 11.24 131.126 11.72C129.254 12.2 127.478 12.824 125.798 13.592C124.118 14.36 122.726 15.32 121.622 16.472C118.646 19.496 116.342 22.976 114.71 26.912C113.126 30.8 112.334 34.856 112.334 39.08C112.334 43.016 113.006 46.616 114.35 49.88C115.742 53.096 117.638 55.88 120.038 58.232C122.438 60.536 125.294 62.336 128.606 63.632C131.966 64.88 135.614 65.504 139.55 65.504C142.67 65.504 145.742 65.336 148.766 65C151.838 64.712 154.886 64.328 157.91 63.848C158.198 63.848 158.414 63.728 158.558 63.488C159.278 62.192 159.83 60.704 160.214 59.024C160.646 57.344 160.862 55.784 160.862 54.344ZM214.473 13.016L214.401 11.72C211.809 11.528 209.241 11.48 206.697 11.576C204.153 11.624 201.585 11.648 198.993 11.648C198.753 11.648 198.537 11.72 198.345 11.864C198.153 11.96 198.081 12.104 198.129 12.296C198.225 12.824 198.633 13.184 199.353 13.376C200.073 13.52 200.769 13.616 201.441 13.664C201.729 13.712 201.945 13.736 202.089 13.736C202.233 13.688 202.377 13.688 202.521 13.736C203.145 13.976 203.553 14.432 203.745 15.104C203.937 15.776 204.033 16.496 204.033 17.264C204.033 18.416 204.033 19.64 204.033 20.936C204.033 22.232 204.033 23.552 204.033 24.896C204.081 26.192 204.105 27.488 204.105 28.784C204.105 30.08 204.105 31.28 204.105 32.384C204.153 34.928 204.177 37.448 204.177 39.944C204.177 42.44 204.177 44.984 204.177 47.576C204.177 49.736 203.793 51.704 203.025 53.48C202.305 55.256 201.273 56.768 199.929 58.016C198.633 59.264 197.073 60.248 195.249 60.968C193.473 61.64 191.553 61.976 189.489 61.976C187.425 61.976 185.505 61.64 183.729 60.968C182.001 60.296 180.489 59.336 179.193 58.088C177.945 56.84 176.961 55.352 176.241 53.624C175.521 51.896 175.161 49.952 175.161 47.792C175.161 45.2 175.137 42.632 175.089 40.088C175.089 37.544 175.113 34.976 175.161 32.384C175.209 29.792 175.233 27.224 175.233 24.68C175.233 22.136 175.233 19.568 175.233 16.976C175.233 15.536 175.593 14.576 176.313 14.096C177.081 13.616 178.113 13.304 179.409 13.16C179.889 13.112 180.129 12.896 180.129 12.512C180.129 12.128 179.889 11.912 179.409 11.864C177.009 11.624 174.633 11.6 172.281 11.792C169.929 11.936 167.577 11.96 165.225 11.864L162.489 11.792C162.249 11.792 162.033 11.864 161.841 12.008C161.649 12.104 161.577 12.248 161.625 12.44C161.721 12.968 162.129 13.328 162.849 13.52C163.569 13.712 164.265 13.832 164.937 13.88C165.225 13.928 165.441 13.952 165.585 13.952C165.729 13.904 165.873 13.904 166.017 13.952C166.641 14.192 167.049 14.648 167.241 15.32C167.433 15.992 167.529 16.712 167.529 17.48V46.064C167.529 46.256 167.553 46.592 167.601 47.072C167.697 47.504 167.769 47.984 167.817 48.512C167.913 49.04 168.009 49.544 168.105 50.024C168.201 50.504 168.297 50.84 168.393 51.032C169.209 53.192 170.313 55.208 171.705 57.08C173.097 58.904 174.705 60.488 176.529 61.832C178.353 63.128 180.345 64.16 182.505 64.928C184.713 65.648 187.017 66.008 189.417 66.008C192.585 66.008 195.441 65.432 197.985 64.28C200.529 63.128 202.689 61.568 204.465 59.6C206.289 57.632 207.681 55.328 208.641 52.688C209.601 50.048 210.081 47.216 210.081 44.192V16.976C210.081 15.584 210.489 14.624 211.305 14.096C212.169 13.568 213.225 13.208 214.473 13.016ZM269.649 64.784L269.217 63.56C267.393 63.848 265.593 63.536 263.817 62.624C262.041 61.664 260.289 60.392 258.561 58.808C256.881 57.176 255.249 55.352 253.665 53.336C252.129 51.272 250.641 49.28 249.201 47.36C248.337 46.208 247.473 45.056 246.609 43.904C245.793 42.752 245.001 41.768 244.233 40.952C245.289 39.944 246.297 38.84 247.257 37.64C248.265 36.392 249.153 35.072 249.921 33.68C250.689 32.288 251.313 30.872 251.793 29.432C252.273 27.944 252.513 26.456 252.513 24.968C252.513 24.632 252.489 24.272 252.441 23.888C252.441 23.504 252.393 23.192 252.297 22.952C251.721 20.552 250.833 18.632 249.633 17.192C248.433 15.704 246.993 14.576 245.313 13.808C243.681 12.992 241.881 12.464 239.913 12.224C237.993 11.936 236.025 11.792 234.009 11.792H230.193C229.761 11.792 229.329 11.816 228.897 11.864C228.513 11.864 228.105 11.864 227.673 11.864C226.905 11.864 226.161 11.888 225.441 11.936C224.721 11.936 223.953 11.912 223.137 11.864H218.385H217.089C216.753 11.864 216.513 11.96 216.369 12.152C216.225 12.296 216.225 12.488 216.369 12.728C216.513 13.208 216.825 13.52 217.305 13.664C217.785 13.808 218.361 13.904 219.033 13.952C219.369 14 219.705 14.072 220.041 14.168C220.377 14.216 220.689 14.36 220.977 14.6C221.265 14.792 221.505 15.128 221.697 15.608C221.889 16.088 221.985 16.736 221.985 17.552V57.44C221.985 58.592 221.961 59.552 221.913 60.32C221.865 61.04 221.697 61.616 221.409 62.048C221.169 62.48 220.761 62.816 220.185 63.056C219.609 63.296 218.793 63.512 217.737 63.704C217.257 63.8 217.017 64.04 217.017 64.424C217.065 64.76 217.329 64.952 217.809 65C220.737 65.144 223.665 65.216 226.593 65.216C229.521 65.216 232.449 65.216 235.377 65.216C235.761 65.216 236.025 65.096 236.169 64.856C236.313 64.616 236.241 64.376 235.953 64.136C235.521 63.752 235.017 63.512 234.441 63.416C233.913 63.32 233.385 63.248 232.857 63.2C232.617 63.152 232.281 63.104 231.849 63.056C231.465 63.008 231.153 62.936 230.913 62.84C230.769 62.744 230.625 62.432 230.481 61.904C230.337 61.376 230.193 60.8 230.049 60.176C229.905 59.504 229.785 58.88 229.689 58.304C229.641 57.728 229.617 57.32 229.617 57.08V43.688C230.001 43.64 230.409 43.616 230.841 43.616C231.321 43.616 231.753 43.616 232.137 43.616C233.145 43.616 234.273 43.712 235.521 43.904C236.817 44.096 237.897 44.576 238.761 45.344C239.913 46.352 241.017 47.6 242.073 49.088C243.177 50.528 244.281 52.016 245.385 53.552C246.489 55.136 247.617 56.696 248.769 58.232C249.969 59.768 251.241 61.16 252.585 62.408C253.977 63.608 255.465 64.568 257.049 65.288C258.681 66.056 260.505 66.44 262.521 66.44C263.769 66.44 264.993 66.296 266.193 66.008C267.393 65.72 268.545 65.312 269.649 64.784ZM244.665 28.64C244.665 29.504 244.593 30.392 244.449 31.304C244.353 32.216 244.161 33.104 243.873 33.968C243.585 34.832 243.201 35.648 242.721 36.416C242.289 37.136 241.737 37.76 241.065 38.288C240.393 38.816 239.529 39.128 238.473 39.224C237.417 39.32 236.481 39.368 235.665 39.368C233.601 39.368 231.609 39.224 229.689 38.936V15.248C230.985 14.816 232.329 14.6 233.721 14.6C235.545 14.6 237.129 15.032 238.473 15.896C239.865 16.712 241.017 17.792 241.929 19.136C242.841 20.432 243.513 21.92 243.945 23.6C244.425 25.28 244.665 26.96 244.665 28.64ZM321.067 64.784L320.635 63.56C318.811 63.848 317.011 63.536 315.235 62.624C313.459 61.664 311.707 60.392 309.979 58.808C308.299 57.176 306.667 55.352 305.083 53.336C303.547 51.272 302.059 49.28 300.619 47.36C299.755 46.208 298.891 45.056 298.027 43.904C297.211 42.752 296.419 41.768 295.651 40.952C296.707 39.944 297.715 38.84 298.675 37.64C299.683 36.392 300.571 35.072 301.339 33.68C302.107 32.288 302.731 30.872 303.211 29.432C303.691 27.944 303.931 26.456 303.931 24.968C303.931 24.632 303.907 24.272 303.859 23.888C303.859 23.504 303.811 23.192 303.715 22.952C303.139 20.552 302.251 18.632 301.051 17.192C299.851 15.704 298.411 14.576 296.731 13.808C295.099 12.992 293.299 12.464 291.331 12.224C289.411 11.936 287.443 11.792 285.427 11.792H281.611C281.179 11.792 280.747 11.816 280.315 11.864C279.931 11.864 279.523 11.864 279.091 11.864C278.323 11.864 277.579 11.888 276.859 11.936C276.139 11.936 275.371 11.912 274.555 11.864H269.803H268.507C268.171 11.864 267.931 11.96 267.787 12.152C267.643 12.296 267.643 12.488 267.787 12.728C267.931 13.208 268.243 13.52 268.723 13.664C269.203 13.808 269.779 13.904 270.451 13.952C270.787 14 271.123 14.072 271.459 14.168C271.795 14.216 272.107 14.36 272.395 14.6C272.683 14.792 272.923 15.128 273.115 15.608C273.307 16.088 273.403 16.736 273.403 17.552V57.44C273.403 58.592 273.379 59.552 273.331 60.32C273.283 61.04 273.115 61.616 272.827 62.048C272.587 62.48 272.179 62.816 271.603 63.056C271.027 63.296 270.211 63.512 269.155 63.704C268.675 63.8 268.435 64.04 268.435 64.424C268.483 64.76 268.747 64.952 269.227 65C272.155 65.144 275.083 65.216 278.011 65.216C280.939 65.216 283.867 65.216 286.795 65.216C287.179 65.216 287.443 65.096 287.587 64.856C287.731 64.616 287.659 64.376 287.371 64.136C286.939 63.752 286.435 63.512 285.859 63.416C285.331 63.32 284.803 63.248 284.275 63.2C284.035 63.152 283.699 63.104 283.267 63.056C282.883 63.008 282.571 62.936 282.331 62.84C282.187 62.744 282.043 62.432 281.899 61.904C281.755 61.376 281.611 60.8 281.467 60.176C281.323 59.504 281.203 58.88 281.107 58.304C281.059 57.728 281.035 57.32 281.035 57.08V43.688C281.419 43.64 281.827 43.616 282.259 43.616C282.739 43.616 283.171 43.616 283.555 43.616C284.563 43.616 285.691 43.712 286.939 43.904C288.235 44.096 289.315 44.576 290.179 45.344C291.331 46.352 292.435 47.6 293.491 49.088C294.595 50.528 295.699 52.016 296.803 53.552C297.907 55.136 299.035 56.696 300.187 58.232C301.387 59.768 302.659 61.16 304.003 62.408C305.395 63.608 306.883 64.568 308.467 65.288C310.099 66.056 311.923 66.44 313.939 66.44C315.187 66.44 316.411 66.296 317.611 66.008C318.811 65.72 319.963 65.312 321.067 64.784ZM296.083 28.64C296.083 29.504 296.011 30.392 295.867 31.304C295.771 32.216 295.579 33.104 295.291 33.968C295.003 34.832 294.619 35.648 294.139 36.416C293.707 37.136 293.155 37.76 292.483 38.288C291.811 38.816 290.947 39.128 289.891 39.224C288.835 39.32 287.899 39.368 287.083 39.368C285.019 39.368 283.027 39.224 281.107 38.936V15.248C282.403 14.816 283.747 14.6 285.139 14.6C286.963 14.6 288.547 15.032 289.891 15.896C291.283 16.712 292.435 17.792 293.347 19.136C294.259 20.432 294.931 21.92 295.363 23.6C295.843 25.28 296.083 26.96 296.083 28.64ZM351.246 55.568C351.294 55.376 351.222 55.232 351.03 55.136C350.886 54.992 350.718 54.92 350.526 54.92C350.334 54.872 350.142 54.872 349.95 54.92C349.758 54.968 349.638 55.088 349.59 55.28C349.062 57.44 348.03 59.072 346.494 60.176C345.006 61.28 343.23 61.832 341.166 61.832C339.582 61.832 337.926 61.52 336.198 60.896C334.518 60.224 333.246 59.144 332.382 57.656V38.216H333.606C334.278 38.216 335.142 38.216 336.198 38.216C337.254 38.216 338.31 38.264 339.366 38.36C340.47 38.408 341.478 38.528 342.39 38.72C343.302 38.864 343.902 39.08 344.19 39.368C344.43 39.56 344.598 39.872 344.694 40.304C344.838 40.736 344.982 41.168 345.126 41.6C345.222 41.888 345.342 42.224 345.486 42.608C345.678 42.992 345.918 43.328 346.206 43.616C346.494 43.856 346.806 43.928 347.142 43.832C347.478 43.736 347.646 43.544 347.646 43.256C347.79 41.384 348.006 39.56 348.294 37.784C348.39 37.064 348.486 36.344 348.582 35.624C348.678 34.856 348.774 34.112 348.87 33.392C348.918 33.152 348.822 32.96 348.582 32.816C348.342 32.672 348.078 32.624 347.79 32.672C347.55 32.72 347.214 32.84 346.782 33.032C346.398 33.176 345.942 33.368 345.414 33.608C344.934 33.848 344.454 34.064 343.974 34.256C343.494 34.4 343.134 34.472 342.894 34.472H332.31V15.248C332.694 15.344 332.934 15.368 333.03 15.32C333.174 15.272 333.438 15.248 333.822 15.248C334.35 15.248 334.854 15.248 335.334 15.248C335.862 15.248 336.366 15.224 336.846 15.176C337.278 15.128 337.71 15.104 338.142 15.104C338.574 15.104 338.982 15.104 339.366 15.104C341.334 15.104 342.942 15.464 344.19 16.184C345.486 16.856 346.23 18.296 346.422 20.504C346.47 20.888 346.734 21.08 347.214 21.08C347.694 21.08 347.982 20.888 348.078 20.504C348.126 20.264 348.174 20.072 348.222 19.928C348.27 19.784 348.318 19.616 348.366 19.424C348.654 18.176 348.918 16.88 349.158 15.536C349.446 14.192 349.662 12.848 349.806 11.504C349.854 11.264 349.734 11.096 349.446 11C349.206 10.856 348.918 10.832 348.582 10.928C348.006 11.264 347.574 11.432 347.286 11.432H319.638C319.254 11.432 318.99 11.576 318.846 11.864C318.702 12.152 318.822 12.392 319.206 12.584C319.686 12.92 320.166 13.184 320.646 13.376C321.126 13.568 321.63 13.712 322.158 13.808C322.494 13.904 322.806 14 323.094 14.096C323.43 14.192 323.718 14.36 323.958 14.6C324.246 14.792 324.462 15.08 324.606 15.464C324.75 15.848 324.822 16.352 324.822 16.976V57.08C324.822 57.896 324.774 58.688 324.678 59.456C324.582 60.176 324.39 60.824 324.102 61.4C323.814 61.976 323.382 62.432 322.806 62.768C322.278 63.104 321.558 63.296 320.646 63.344C320.166 63.344 319.902 63.56 319.854 63.992C319.854 64.376 320.094 64.568 320.574 64.568C322.302 64.76 324.15 64.88 326.118 64.928C328.086 64.976 330.078 65 332.094 65C333.198 65 334.302 65 335.406 65C336.51 64.952 337.614 64.928 338.718 64.928H347.862L349.158 64.568C349.542 64.568 349.782 64.4 349.878 64.064L350.094 62.336C350.238 61.184 350.382 60.056 350.526 58.952C350.718 57.8 350.958 56.672 351.246 55.568ZM408.852 13.808L408.708 12.584C406.98 12.488 405.252 12.464 403.524 12.512C401.796 12.512 400.092 12.512 398.412 12.512H393.228C392.844 12.512 392.58 12.632 392.436 12.872C392.34 13.112 392.436 13.328 392.724 13.52C392.964 13.808 393.276 14 393.66 14.096C394.092 14.192 394.572 14.288 395.1 14.384C395.532 14.48 395.964 14.576 396.396 14.672C396.828 14.768 397.212 14.984 397.548 15.32C397.932 15.608 398.244 16.064 398.484 16.688C398.724 17.312 398.844 18.176 398.844 19.28C398.844 24.56 398.916 29.816 399.06 35.048C399.252 40.28 399.348 45.536 399.348 50.816C399.348 51.2 399.324 51.584 399.276 51.968C399.276 52.304 399.276 52.664 399.276 53.048C386.604 39.08 373.62 25.304 360.324 11.72C359.94 11.432 359.556 11.432 359.172 11.72C358.884 12.008 358.644 12.296 358.452 12.584C358.26 12.824 358.164 13.136 358.164 13.52V58.88C358.164 60.08 357.804 61.064 357.084 61.832C356.412 62.552 355.524 63.032 354.42 63.272L353.412 63.488C352.98 63.584 352.716 63.8 352.62 64.136C352.572 64.472 352.764 64.688 353.196 64.784C354.348 65.024 355.572 65.072 356.868 64.928C358.164 64.736 359.436 64.664 360.684 64.712L369.828 64.928C370.212 64.928 370.476 64.808 370.62 64.568C370.764 64.28 370.668 64.04 370.332 63.848C369.804 63.512 369.276 63.272 368.748 63.128C368.268 62.936 367.788 62.792 367.308 62.696C366.876 62.6 366.444 62.48 366.012 62.336C365.58 62.144 365.196 61.856 364.86 61.472C364.572 61.088 364.332 60.56 364.14 59.888C363.948 59.216 363.852 58.304 363.852 57.152C363.852 54.752 363.804 52.376 363.708 50.024C363.612 47.624 363.516 45.2 363.42 42.752C363.324 40.4 363.228 38.048 363.132 35.696C363.036 33.344 362.988 30.968 362.988 28.568C362.988 27.32 363.06 26 363.204 24.608C364.068 25.568 364.788 26.36 365.364 26.984C365.94 27.608 366.636 28.4 367.452 29.36C370.188 32.384 372.972 35.48 375.804 38.648C378.636 41.768 381.492 44.888 384.372 48.008C387.3 51.08 390.252 54.08 393.228 57.008C396.252 59.936 399.3 62.696 402.372 65.288C402.66 65.48 402.948 65.528 403.236 65.432C403.572 65.336 403.764 65.144 403.812 64.856C404.436 56.888 404.7 48.896 404.604 40.88C404.556 32.864 404.532 24.848 404.532 16.832C404.532 16.016 404.892 15.464 405.612 15.176C406.38 14.888 407.148 14.624 407.916 14.384C408.06 14.336 408.204 14.24 408.348 14.096C408.54 13.952 408.708 13.856 408.852 13.808ZM456.841 13.376V11.792C456.841 11.552 456.721 11.384 456.481 11.288C456.289 11.192 456.073 11.168 455.833 11.216C455.593 11.264 455.305 11.312 454.969 11.36C454.681 11.36 454.417 11.408 454.177 11.504C453.793 11.6 453.361 11.72 452.881 11.864C452.449 11.96 452.089 12.008 451.801 12.008H420.985C420.697 12.008 420.265 11.984 419.689 11.936C419.161 11.84 418.585 11.72 417.961 11.576C417.385 11.432 416.833 11.288 416.305 11.144C415.777 10.952 415.369 10.76 415.081 10.568C414.841 10.472 414.577 10.472 414.289 10.568C414.049 10.616 413.881 10.76 413.785 11C413.689 11.384 413.593 11.768 413.497 12.152C413.449 12.536 413.353 12.944 413.209 13.376C412.873 14.432 412.561 15.488 412.273 16.544C411.985 17.552 411.841 18.488 411.841 19.352C411.841 19.592 411.841 19.808 411.841 20C411.889 20.144 411.937 20.312 411.985 20.504C412.081 20.84 412.321 21.032 412.705 21.08C413.137 21.08 413.425 20.936 413.569 20.648C414.145 19.4 414.961 18.296 416.017 17.336C417.073 16.328 418.297 15.824 419.689 15.824H430.849V57.8C430.849 58.952 430.801 59.864 430.705 60.536C430.657 61.208 430.489 61.76 430.201 62.192C429.913 62.624 429.481 62.96 428.905 63.2C428.329 63.392 427.537 63.584 426.529 63.776C426.049 63.872 425.833 64.088 425.881 64.424C425.929 64.76 426.193 64.952 426.673 65C429.601 65.096 432.505 65.12 435.385 65.072C438.313 65.024 441.241 65 444.169 65C444.505 65 444.745 64.928 444.889 64.784C445.033 64.592 445.033 64.376 444.889 64.136C444.649 63.656 444.289 63.368 443.809 63.272C443.329 63.176 442.753 63.104 442.081 63.056C441.649 63.008 441.193 62.936 440.713 62.84C440.233 62.744 439.753 62.456 439.273 61.976C439.225 61.928 439.153 61.664 439.057 61.184C438.961 60.704 438.865 60.176 438.769 59.6C438.721 59.024 438.649 58.472 438.553 57.944C438.505 57.368 438.481 57.008 438.481 56.864V15.968C438.817 16.016 439.177 16.04 439.561 16.04C439.993 16.04 440.401 16.04 440.785 16.04C441.169 16.04 441.625 16.04 442.153 16.04C442.729 15.992 443.233 15.944 443.665 15.896C444.145 15.848 444.601 15.824 445.033 15.824C445.465 15.776 445.945 15.752 446.473 15.752C448.489 15.752 450.193 16.112 451.585 16.832C453.025 17.552 453.961 19.016 454.393 21.224C454.489 21.56 454.753 21.728 455.185 21.728C455.665 21.728 455.953 21.56 456.049 21.224C456.337 19.976 456.529 18.704 456.625 17.408C456.769 16.064 456.841 14.72 456.841 13.376ZM115.214 136.568C115.262 136.376 115.19 136.232 114.998 136.136C114.854 135.992 114.686 135.92 114.494 135.92C114.302 135.872 114.11 135.872 113.918 135.92C113.726 135.968 113.606 136.088 113.558 136.28C113.03 138.44 111.998 140.072 110.462 141.176C108.974 142.28 107.198 142.832 105.134 142.832C103.55 142.832 101.894 142.52 100.166 141.896C98.4855 141.224 97.2135 140.144 96.3495 138.656V119.216H97.5735C98.2455 119.216 99.1095 119.216 100.166 119.216C101.222 119.216 102.278 119.264 103.334 119.36C104.438 119.408 105.446 119.528 106.358 119.72C107.27 119.864 107.87 120.08 108.158 120.368C108.398 120.56 108.566 120.872 108.662 121.304C108.806 121.736 108.95 122.168 109.094 122.6C109.19 122.888 109.31 123.224 109.454 123.608C109.646 123.992 109.886 124.328 110.174 124.616C110.462 124.856 110.774 124.928 111.11 124.832C111.446 124.736 111.614 124.544 111.614 124.256C111.758 122.384 111.974 120.56 112.262 118.784C112.358 118.064 112.454 117.344 112.55 116.624C112.646 115.856 112.742 115.112 112.838 114.392C112.886 114.152 112.79 113.96 112.55 113.816C112.31 113.672 112.046 113.624 111.758 113.672C111.518 113.72 111.182 113.84 110.75 114.032C110.366 114.176 109.91 114.368 109.382 114.608C108.902 114.848 108.422 115.064 107.942 115.256C107.462 115.4 107.102 115.472 106.862 115.472H96.2775V96.248C96.6615 96.344 96.9015 96.368 96.9975 96.32C97.1415 96.272 97.4055 96.248 97.7895 96.248C98.3175 96.248 98.8215 96.248 99.3015 96.248C99.8295 96.248 100.334 96.224 100.814 96.176C101.246 96.128 101.678 96.104 102.11 96.104C102.542 96.104 102.95 96.104 103.334 96.104C105.302 96.104 106.91 96.464 108.158 97.184C109.454 97.856 110.198 99.296 110.39 101.504C110.438 101.888 110.702 102.08 111.182 102.08C111.662 102.08 111.95 101.888 112.046 101.504C112.094 101.264 112.142 101.072 112.19 100.928C112.238 100.784 112.286 100.616 112.334 100.424C112.622 99.176 112.886 97.88 113.126 96.536C113.414 95.192 113.63 93.848 113.774 92.504C113.822 92.264 113.702 92.096 113.414 92C113.174 91.856 112.886 91.832 112.55 91.928C111.974 92.264 111.542 92.432 111.254 92.432H83.6055C83.2215 92.432 82.9575 92.576 82.8135 92.864C82.6695 93.152 82.7895 93.392 83.1735 93.584C83.6535 93.92 84.1335 94.184 84.6135 94.376C85.0935 94.568 85.5975 94.712 86.1255 94.808C86.4615 94.904 86.7735 95 87.0615 95.096C87.3975 95.192 87.6855 95.36 87.9255 95.6C88.2135 95.792 88.4295 96.08 88.5735 96.464C88.7175 96.848 88.7895 97.352 88.7895 97.976V138.08C88.7895 138.896 88.7415 139.688 88.6455 140.456C88.5495 141.176 88.3575 141.824 88.0695 142.4C87.7815 142.976 87.3495 143.432 86.7735 143.768C86.2455 144.104 85.5255 144.296 84.6135 144.344C84.1335 144.344 83.8695 144.56 83.8215 144.992C83.8215 145.376 84.0615 145.568 84.5415 145.568C86.2695 145.76 88.1175 145.88 90.0855 145.928C92.0535 145.976 94.0455 146 96.0615 146C97.1655 146 98.2695 146 99.3735 146C100.478 145.952 101.582 145.928 102.686 145.928H111.83L113.126 145.568C113.51 145.568 113.75 145.4 113.846 145.064L114.062 143.336C114.206 142.184 114.35 141.056 114.494 139.952C114.686 138.8 114.926 137.672 115.214 136.568ZM166.34 144.632C164.804 144.248 163.34 143.432 161.948 142.184C160.556 140.888 159.212 139.376 157.916 137.648C156.668 135.92 155.444 134.048 154.244 132.032C153.092 129.968 151.988 127.952 150.932 125.984C150.548 125.264 150.116 124.496 149.636 123.68C149.204 122.864 148.724 122.048 148.196 121.232C147.716 120.416 147.236 119.648 146.756 118.928C146.276 118.16 145.844 117.488 145.46 116.912C146.084 116.096 146.732 115.136 147.404 114.032C148.076 112.88 148.772 111.68 149.492 110.432C150.5 108.752 151.604 107 152.804 105.176C154.052 103.304 155.3 101.6 156.548 100.064C157.796 98.48 159.068 97.184 160.364 96.176C161.66 95.12 162.884 94.544 164.036 94.448C164.516 94.4 164.756 94.208 164.756 93.872C164.804 93.536 164.612 93.296 164.18 93.152C163.028 92.816 161.828 92.624 160.58 92.576C159.332 92.48 158.084 92.432 156.836 92.432C155.588 92.432 154.34 92.456 153.092 92.504C151.892 92.552 150.692 92.648 149.492 92.792C149.012 92.84 148.748 93.056 148.7 93.44C148.7 93.776 148.916 93.992 149.348 94.088C150.068 94.232 150.764 94.52 151.436 94.952C152.108 95.384 152.444 96.008 152.444 96.824C152.444 97.256 152.276 97.832 151.94 98.552C151.604 99.224 151.172 99.992 150.644 100.856C150.116 101.672 149.516 102.56 148.844 103.52C148.172 104.48 147.476 105.44 146.756 106.4C145.988 107.504 145.244 108.584 144.524 109.64C143.804 110.648 143.18 111.56 142.652 112.376C142.124 111.464 141.5 110.456 140.78 109.352C140.108 108.248 139.412 107.144 138.692 106.04C138.068 105.128 137.444 104.192 136.82 103.232C136.244 102.272 135.716 101.384 135.236 100.568C134.804 99.704 134.444 98.912 134.156 98.192C133.868 97.472 133.724 96.848 133.724 96.32C133.724 95.648 133.964 95.096 134.444 94.664C134.924 94.232 135.5 93.92 136.172 93.728C136.604 93.584 136.772 93.344 136.676 93.008C136.628 92.624 136.364 92.432 135.884 92.432H125.732C124.58 92.432 123.38 92.456 122.132 92.504C120.884 92.552 119.756 92.768 118.748 93.152C118.316 93.248 118.124 93.464 118.172 93.8C118.22 94.136 118.46 94.352 118.892 94.448C120.476 94.736 121.916 95.408 123.212 96.464C124.556 97.52 125.804 98.816 126.956 100.352C128.108 101.84 129.164 103.496 130.124 105.32C131.132 107.096 132.116 108.872 133.076 110.648C133.796 112.04 134.54 113.456 135.308 114.896C136.124 116.288 136.94 117.56 137.756 118.712C137.18 119.48 136.508 120.536 135.74 121.88C135.02 123.224 134.252 124.616 133.436 126.056C132.284 128.072 131.06 130.16 129.764 132.32C128.516 134.432 127.196 136.4 125.804 138.224C124.46 140 123.068 141.488 121.628 142.688C120.236 143.888 118.82 144.536 117.38 144.632C116.9 144.68 116.66 144.896 116.66 145.28C116.708 145.664 116.972 145.856 117.452 145.856H119.54C121.652 145.856 123.74 145.832 125.804 145.784C127.916 145.736 130.028 145.664 132.14 145.568C132.572 145.52 132.812 145.352 132.86 145.064C132.956 144.776 132.812 144.56 132.428 144.416C131.948 144.08 131.636 143.96 131.492 144.056C131.396 144.104 131.252 144.104 131.06 144.056C130.82 144.008 130.604 143.96 130.412 143.912C130.268 143.864 130.1 143.72 129.908 143.48C129.956 142.616 130.244 141.56 130.772 140.312C131.348 139.064 132.02 137.744 132.788 136.352C133.604 134.912 134.468 133.448 135.38 131.96C136.292 130.424 137.156 128.984 137.972 127.64C138.5 126.824 138.98 126.056 139.412 125.336C139.844 124.616 140.252 123.92 140.636 123.248L141.356 124.328C142.22 125.672 143.252 127.352 144.452 129.368C145.7 131.384 146.876 133.376 147.98 135.344C149.132 137.312 150.092 139.064 150.86 140.6C151.628 142.088 152.012 142.976 152.012 143.264C152.012 143.792 151.844 144.2 151.508 144.488C151.22 144.728 151.148 144.968 151.292 145.208C151.436 145.448 151.7 145.568 152.084 145.568C153.236 145.568 154.388 145.592 155.54 145.64C156.74 145.64 157.916 145.664 159.068 145.712C160.22 145.76 161.372 145.808 162.524 145.856C163.724 145.856 164.924 145.856 166.124 145.856L166.34 144.632ZM224.369 144.92C223.937 144.488 223.433 144.224 222.857 144.128C222.329 143.984 221.801 143.888 221.273 143.84C221.033 143.792 220.721 143.768 220.337 143.768C220.001 143.72 219.785 143.648 219.689 143.552C219.497 143.504 219.305 143.216 219.113 142.688C218.921 142.16 218.753 141.584 218.609 140.96C218.465 140.288 218.345 139.664 218.249 139.088C218.153 138.464 218.105 138.032 218.105 137.792V98.048C218.105 96.56 218.513 95.6 219.329 95.168C220.145 94.688 221.177 94.328 222.425 94.088C222.857 93.992 223.049 93.776 223.001 93.44C223.001 93.056 222.785 92.84 222.353 92.792C219.569 92.6 216.761 92.48 213.929 92.432C211.145 92.384 208.337 92.36 205.505 92.36C205.265 92.36 205.049 92.432 204.857 92.576C204.665 92.72 204.593 92.888 204.641 93.08C204.737 93.704 205.121 94.088 205.793 94.232C206.513 94.376 207.233 94.472 207.953 94.52C208.193 94.52 208.457 94.568 208.745 94.664C209.465 94.856 209.945 95.288 210.185 95.96C210.425 96.584 210.545 97.304 210.545 98.12V114.608H181.961V98.048C181.961 96.8 182.369 95.864 183.185 95.24C184.049 94.616 185.033 94.28 186.137 94.232C186.569 94.232 186.785 94.04 186.785 93.656C186.833 93.224 186.641 92.984 186.209 92.936C183.425 92.696 180.641 92.552 177.857 92.504C175.121 92.408 172.337 92.36 169.505 92.36C169.169 92.36 168.905 92.456 168.713 92.648C168.569 92.84 168.569 93.056 168.713 93.296C168.905 93.776 169.217 94.088 169.649 94.232C170.129 94.376 170.705 94.472 171.377 94.52C171.713 94.568 172.049 94.64 172.385 94.736C172.769 94.784 173.105 94.928 173.393 95.168C173.681 95.36 173.897 95.696 174.041 96.176C174.233 96.656 174.329 97.304 174.329 98.12V138.008C174.329 139.208 174.305 140.168 174.257 140.888C174.209 141.608 174.041 142.184 173.753 142.616C173.465 143.048 173.033 143.384 172.457 143.624C171.881 143.864 171.065 144.08 170.009 144.272C169.577 144.368 169.361 144.608 169.361 144.992C169.409 145.328 169.649 145.52 170.081 145.568C173.009 145.712 175.985 145.784 179.009 145.784C181.937 145.784 184.841 145.712 187.721 145.568C188.201 145.52 188.417 145.28 188.369 144.848C188.321 144.416 188.057 144.224 187.577 144.272C186.377 144.368 185.393 144.296 184.625 144.056C183.905 143.768 183.329 143.36 182.897 142.832C182.513 142.304 182.249 141.632 182.105 140.816C181.961 139.952 181.889 138.944 181.889 137.792V118.208H210.545V138.008C210.545 138.488 210.497 139.088 210.401 139.808C210.353 140.48 210.209 141.152 209.969 141.824C209.777 142.496 209.513 143.072 209.177 143.552C208.841 144.032 208.409 144.272 207.881 144.272C207.593 144.272 207.209 144.176 206.729 143.984C206.345 143.84 206.009 143.96 205.721 144.344C205.481 144.68 205.577 144.944 206.009 145.136C206.393 145.328 206.921 145.496 207.593 145.64C208.265 145.736 208.985 145.808 209.753 145.856C210.521 145.904 211.241 145.928 211.913 145.928C212.633 145.928 213.209 145.928 213.641 145.928H223.793C224.177 145.928 224.441 145.832 224.585 145.64C224.729 145.4 224.657 145.16 224.369 144.92ZM245.179 144.848C244.747 144.416 244.267 144.176 243.739 144.128C243.211 144.032 242.683 143.984 242.155 143.984C241.915 143.984 241.603 143.936 241.219 143.84C240.835 143.744 240.523 143.648 240.283 143.552C240.139 143.36 239.971 143 239.779 142.472C239.635 141.896 239.491 141.296 239.347 140.672C239.203 140.048 239.083 139.472 238.987 138.944C238.891 138.368 238.843 137.96 238.843 137.72V98.048C238.843 96.56 239.251 95.576 240.067 95.096C240.883 94.616 241.939 94.256 243.235 94.016C243.715 93.92 243.931 93.704 243.883 93.368C243.835 92.984 243.571 92.768 243.091 92.72C241.699 92.624 240.331 92.6 238.987 92.648C237.643 92.696 236.299 92.72 234.955 92.72C233.563 92.72 232.171 92.72 230.779 92.72C229.435 92.672 228.067 92.696 226.675 92.792C226.243 92.84 226.027 93.056 226.027 93.44C226.027 93.824 226.243 94.04 226.675 94.088C227.923 94.232 229.003 94.592 229.915 95.168C230.827 95.696 231.283 96.68 231.283 98.12V137.432C231.283 137.912 231.235 138.512 231.139 139.232C231.091 139.904 230.947 140.576 230.707 141.248C230.515 141.92 230.251 142.496 229.915 142.976C229.579 143.456 229.147 143.696 228.619 143.696C228.475 143.696 228.067 143.792 227.395 143.984C226.771 144.128 226.339 144.152 226.099 144.056C225.907 143.96 225.715 143.984 225.523 144.128C225.331 144.224 225.187 144.368 225.091 144.56C224.995 144.752 224.947 144.944 224.947 145.136C224.947 145.328 225.043 145.472 225.235 145.568C225.571 145.712 226.579 145.76 228.259 145.712C229.987 145.616 231.907 145.568 234.019 145.568C235.315 145.568 236.587 145.592 237.835 145.64C239.083 145.64 240.211 145.664 241.219 145.712C242.227 145.76 243.043 145.808 243.667 145.856C244.291 145.856 244.603 145.856 244.603 145.856C244.987 145.856 245.227 145.76 245.323 145.568C245.467 145.328 245.419 145.088 245.179 144.848ZM283.665 130.304C283.665 128.528 283.377 126.872 282.801 125.336C282.225 123.752 281.409 122.336 280.353 121.088C279.345 119.84 278.121 118.76 276.681 117.848C275.289 116.888 273.777 116.144 272.145 115.616C272.961 114.848 273.753 114.008 274.521 113.096C275.289 112.184 275.961 111.224 276.537 110.216C277.161 109.208 277.641 108.176 277.977 107.12C278.361 106.016 278.553 104.888 278.553 103.736C278.553 101.768 278.073 100.064 277.113 98.624C276.153 97.184 274.929 95.984 273.441 95.024C272.001 94.064 270.369 93.368 268.545 92.936C266.769 92.456 265.041 92.216 263.361 92.216C262.257 92.216 261.201 92.264 260.193 92.36C259.233 92.408 258.273 92.48 257.313 92.576C256.305 92.672 255.321 92.768 254.361 92.864C253.401 92.912 252.441 92.936 251.481 92.936C250.089 92.936 248.745 92.768 247.449 92.432C247.065 92.384 246.753 92.48 246.513 92.72C246.321 92.96 246.345 93.2 246.585 93.44C246.969 93.968 247.401 94.304 247.881 94.448C248.409 94.544 248.985 94.64 249.609 94.736C249.897 94.784 250.185 94.832 250.473 94.88C250.809 94.928 251.097 95.072 251.337 95.312C251.625 95.504 251.841 95.816 251.985 96.248C252.129 96.68 252.201 97.256 252.201 97.976V137.72C252.201 138.92 252.153 139.88 252.057 140.6C252.009 141.32 251.817 141.896 251.481 142.328C251.193 142.76 250.737 143.12 250.113 143.408C249.537 143.696 248.745 144.008 247.737 144.344L248.025 145.568H257.817C258.201 145.568 258.681 145.568 259.257 145.568C259.833 145.568 260.457 145.592 261.129 145.64C261.993 145.688 262.881 145.736 263.793 145.784C264.705 145.784 265.569 145.784 266.385 145.784C267.201 145.784 267.945 145.784 268.617 145.784C269.289 145.736 269.841 145.664 270.273 145.568C272.145 145.232 273.897 144.608 275.529 143.696C277.161 142.736 278.577 141.584 279.777 140.24C280.977 138.896 281.913 137.384 282.585 135.704C283.305 133.976 283.665 132.176 283.665 130.304ZM271.569 104.816C271.569 106.832 271.281 108.488 270.705 109.784C270.129 111.032 269.313 112.016 268.257 112.736C267.201 113.456 265.953 113.936 264.513 114.176C263.121 114.416 261.561 114.536 259.833 114.536V95.672C260.889 95.336 262.041 95.168 263.289 95.168C264.585 95.168 265.737 95.432 266.745 95.96C267.801 96.488 268.665 97.208 269.337 98.12C270.057 98.984 270.609 99.992 270.993 101.144C271.377 102.296 271.569 103.52 271.569 104.816ZM276.393 132.464C276.393 133.856 276.153 135.176 275.673 136.424C275.241 137.672 274.593 138.776 273.729 139.736C272.913 140.696 271.905 141.464 270.705 142.04C269.553 142.568 268.281 142.832 266.889 142.832C266.217 142.832 265.449 142.712 264.585 142.472C263.769 142.232 263.001 141.872 262.281 141.392C261.561 140.912 260.961 140.36 260.481 139.736C260.001 139.064 259.761 138.32 259.761 137.504V118.064C261.105 118.064 262.521 118.136 264.009 118.28C265.545 118.376 266.889 118.712 268.041 119.288C269.241 119.864 270.345 120.632 271.353 121.592C272.409 122.504 273.297 123.536 274.017 124.688C274.785 125.84 275.361 127.088 275.745 128.432C276.177 129.728 276.393 131.072 276.393 132.464ZM304 144.848C303.568 144.416 303.088 144.176 302.56 144.128C302.032 144.032 301.504 143.984 300.976 143.984C300.736 143.984 300.424 143.936 300.04 143.84C299.656 143.744 299.344 143.648 299.104 143.552C298.96 143.36 298.792 143 298.6 142.472C298.456 141.896 298.312 141.296 298.168 140.672C298.024 140.048 297.904 139.472 297.808 138.944C297.712 138.368 297.664 137.96 297.664 137.72V98.048C297.664 96.56 298.072 95.576 298.888 95.096C299.704 94.616 300.76 94.256 302.056 94.016C302.536 93.92 302.752 93.704 302.704 93.368C302.656 92.984 302.392 92.768 301.912 92.72C300.52 92.624 299.152 92.6 297.808 92.648C296.464 92.696 295.12 92.72 293.776 92.72C292.384 92.72 290.992 92.72 289.6 92.72C288.256 92.672 286.888 92.696 285.496 92.792C285.064 92.84 284.848 93.056 284.848 93.44C284.848 93.824 285.064 94.04 285.496 94.088C286.744 94.232 287.824 94.592 288.736 95.168C289.648 95.696 290.104 96.68 290.104 98.12V137.432C290.104 137.912 290.056 138.512 289.96 139.232C289.912 139.904 289.768 140.576 289.528 141.248C289.336 141.92 289.072 142.496 288.736 142.976C288.4 143.456 287.968 143.696 287.44 143.696C287.296 143.696 286.888 143.792 286.216 143.984C285.592 144.128 285.16 144.152 284.92 144.056C284.728 143.96 284.536 143.984 284.344 144.128C284.152 144.224 284.008 144.368 283.912 144.56C283.816 144.752 283.768 144.944 283.768 145.136C283.768 145.328 283.864 145.472 284.056 145.568C284.392 145.712 285.4 145.76 287.08 145.712C288.808 145.616 290.728 145.568 292.84 145.568C294.136 145.568 295.408 145.592 296.656 145.64C297.904 145.64 299.032 145.664 300.04 145.712C301.048 145.76 301.864 145.808 302.488 145.856C303.112 145.856 303.424 145.856 303.424 145.856C303.808 145.856 304.048 145.76 304.144 145.568C304.288 145.328 304.24 145.088 304 144.848ZM350.333 94.376V92.792C350.333 92.552 350.213 92.384 349.973 92.288C349.781 92.192 349.565 92.168 349.325 92.216C349.085 92.264 348.797 92.312 348.461 92.36C348.173 92.36 347.909 92.408 347.669 92.504C347.285 92.6 346.853 92.72 346.373 92.864C345.941 92.96 345.581 93.008 345.293 93.008H314.477C314.189 93.008 313.757 92.984 313.181 92.936C312.653 92.84 312.077 92.72 311.453 92.576C310.877 92.432 310.325 92.288 309.797 92.144C309.269 91.952 308.861 91.76 308.573 91.568C308.333 91.472 308.069 91.472 307.781 91.568C307.541 91.616 307.373 91.76 307.277 92C307.181 92.384 307.085 92.768 306.989 93.152C306.941 93.536 306.845 93.944 306.701 94.376C306.365 95.432 306.053 96.488 305.765 97.544C305.477 98.552 305.333 99.488 305.333 100.352C305.333 100.592 305.333 100.808 305.333 101C305.381 101.144 305.429 101.312 305.477 101.504C305.573 101.84 305.813 102.032 306.197 102.08C306.629 102.08 306.917 101.936 307.061 101.648C307.637 100.4 308.453 99.296 309.509 98.336C310.565 97.328 311.789 96.824 313.181 96.824H324.341V138.8C324.341 139.952 324.293 140.864 324.197 141.536C324.149 142.208 323.981 142.76 323.693 143.192C323.405 143.624 322.973 143.96 322.397 144.2C321.821 144.392 321.029 144.584 320.021 144.776C319.541 144.872 319.325 145.088 319.373 145.424C319.421 145.76 319.685 145.952 320.165 146C323.093 146.096 325.997 146.12 328.877 146.072C331.805 146.024 334.733 146 337.661 146C337.997 146 338.237 145.928 338.381 145.784C338.525 145.592 338.525 145.376 338.381 145.136C338.141 144.656 337.781 144.368 337.301 144.272C336.821 144.176 336.245 144.104 335.573 144.056C335.141 144.008 334.685 143.936 334.205 143.84C333.725 143.744 333.245 143.456 332.765 142.976C332.717 142.928 332.645 142.664 332.549 142.184C332.453 141.704 332.357 141.176 332.261 140.6C332.213 140.024 332.141 139.472 332.045 138.944C331.997 138.368 331.973 138.008 331.973 137.864V96.968C332.309 97.016 332.669 97.04 333.053 97.04C333.485 97.04 333.893 97.04 334.277 97.04C334.661 97.04 335.117 97.04 335.645 97.04C336.221 96.992 336.725 96.944 337.157 96.896C337.637 96.848 338.093 96.824 338.525 96.824C338.957 96.776 339.437 96.752 339.965 96.752C341.981 96.752 343.685 97.112 345.077 97.832C346.517 98.552 347.453 100.016 347.885 102.224C347.981 102.56 348.245 102.728 348.677 102.728C349.157 102.728 349.445 102.56 349.541 102.224C349.829 100.976 350.021 99.704 350.117 98.408C350.261 97.064 350.333 95.72 350.333 94.376ZM370.766 144.848C370.334 144.416 369.854 144.176 369.326 144.128C368.798 144.032 368.27 143.984 367.742 143.984C367.502 143.984 367.19 143.936 366.806 143.84C366.422 143.744 366.11 143.648 365.87 143.552C365.726 143.36 365.558 143 365.366 142.472C365.222 141.896 365.078 141.296 364.934 140.672C364.79 140.048 364.67 139.472 364.574 138.944C364.478 138.368 364.43 137.96 364.43 137.72V98.048C364.43 96.56 364.838 95.576 365.654 95.096C366.47 94.616 367.526 94.256 368.822 94.016C369.302 93.92 369.518 93.704 369.47 93.368C369.422 92.984 369.158 92.768 368.678 92.72C367.286 92.624 365.918 92.6 364.574 92.648C363.23 92.696 361.886 92.72 360.542 92.72C359.15 92.72 357.758 92.72 356.366 92.72C355.022 92.672 353.654 92.696 352.262 92.792C351.83 92.84 351.614 93.056 351.614 93.44C351.614 93.824 351.83 94.04 352.262 94.088C353.51 94.232 354.59 94.592 355.502 95.168C356.414 95.696 356.87 96.68 356.87 98.12V137.432C356.87 137.912 356.822 138.512 356.726 139.232C356.678 139.904 356.534 140.576 356.294 141.248C356.102 141.92 355.838 142.496 355.502 142.976C355.166 143.456 354.734 143.696 354.206 143.696C354.062 143.696 353.654 143.792 352.982 143.984C352.358 144.128 351.926 144.152 351.686 144.056C351.494 143.96 351.302 143.984 351.11 144.128C350.918 144.224 350.774 144.368 350.678 144.56C350.582 144.752 350.534 144.944 350.534 145.136C350.534 145.328 350.63 145.472 350.822 145.568C351.158 145.712 352.166 145.76 353.846 145.712C355.574 145.616 357.494 145.568 359.606 145.568C360.902 145.568 362.174 145.592 363.422 145.64C364.67 145.64 365.798 145.664 366.806 145.712C367.814 145.76 368.63 145.808 369.254 145.856C369.878 145.856 370.19 145.856 370.19 145.856C370.574 145.856 370.814 145.76 370.91 145.568C371.054 145.328 371.006 145.088 370.766 144.848ZM426.22 120.872C426.22 117.368 425.668 113.84 424.564 110.288C423.508 106.688 421.876 103.448 419.668 100.568C417.46 97.688 414.676 95.336 411.316 93.512C407.956 91.688 404.02 90.776 399.508 90.776C398.836 90.776 398.116 90.824 397.348 90.92C396.628 90.968 395.932 91.064 395.26 91.208C390.748 92.168 386.908 93.464 383.74 95.096C380.572 96.68 377.98 98.672 375.964 101.072C373.948 103.472 372.484 106.304 371.572 109.568C370.66 112.832 370.204 116.576 370.204 120.8C370.204 122.912 370.588 125.024 371.356 127.136C372.124 129.248 373.156 131.288 374.452 133.256C375.748 135.176 377.26 136.976 378.988 138.656C380.764 140.336 382.636 141.8 384.604 143.048C386.572 144.248 388.612 145.208 390.724 145.928C392.836 146.648 394.876 147.008 396.844 147.008C397.132 147.008 397.492 147.008 397.924 147.008C398.404 147.008 398.86 146.984 399.292 146.936C399.772 146.936 400.204 146.912 400.588 146.864C401.02 146.816 401.38 146.768 401.668 146.72C405.028 145.952 408.196 144.872 411.172 143.48C414.148 142.088 416.74 140.336 418.948 138.224C421.204 136.112 422.98 133.616 424.276 130.736C425.572 127.856 426.22 124.568 426.22 120.872ZM418.948 120.728C418.948 123.752 418.516 126.656 417.652 129.44C416.788 132.176 415.516 134.576 413.836 136.64C412.204 138.704 410.164 140.36 407.716 141.608C405.268 142.808 402.436 143.408 399.22 143.408C395.812 143.408 392.764 142.64 390.076 141.104C387.436 139.52 385.204 137.48 383.38 134.984C381.556 132.488 380.164 129.68 379.204 126.56C378.292 123.44 377.836 120.32 377.836 117.2C377.836 114.128 378.268 111.248 379.132 108.56C380.044 105.824 381.34 103.448 383.02 101.432C384.748 99.368 386.836 97.76 389.284 96.608C391.78 95.408 394.636 94.808 397.852 94.808C401.26 94.808 404.26 95.576 406.852 97.112C409.492 98.648 411.7 100.64 413.476 103.088C415.3 105.536 416.668 108.32 417.58 111.44C418.492 114.512 418.948 117.608 418.948 120.728ZM482.493 94.808L482.349 93.584C480.621 93.488 478.893 93.464 477.165 93.512C475.437 93.512 473.733 93.512 472.053 93.512H466.869C466.485 93.512 466.221 93.632 466.077 93.872C465.981 94.112 466.077 94.328 466.365 94.52C466.605 94.808 466.917 95 467.301 95.096C467.733 95.192 468.213 95.288 468.741 95.384C469.173 95.48 469.605 95.576 470.037 95.672C470.469 95.768 470.853 95.984 471.189 96.32C471.573 96.608 471.885 97.064 472.125 97.688C472.365 98.312 472.485 99.176 472.485 100.28C472.485 105.56 472.557 110.816 472.701 116.048C472.893 121.28 472.989 126.536 472.989 131.816C472.989 132.2 472.965 132.584 472.917 132.968C472.917 133.304 472.917 133.664 472.917 134.048C460.245 120.08 447.261 106.304 433.965 92.72C433.581 92.432 433.197 92.432 432.813 92.72C432.525 93.008 432.285 93.296 432.093 93.584C431.901 93.824 431.805 94.136 431.805 94.52V139.88C431.805 141.08 431.445 142.064 430.725 142.832C430.053 143.552 429.165 144.032 428.061 144.272L427.053 144.488C426.621 144.584 426.357 144.8 426.261 145.136C426.213 145.472 426.405 145.688 426.837 145.784C427.989 146.024 429.213 146.072 430.509 145.928C431.805 145.736 433.077 145.664 434.325 145.712L443.469 145.928C443.853 145.928 444.117 145.808 444.261 145.568C444.405 145.28 444.309 145.04 443.973 144.848C443.445 144.512 442.917 144.272 442.389 144.128C441.909 143.936 441.429 143.792 440.949 143.696C440.517 143.6 440.085 143.48 439.653 143.336C439.221 143.144 438.837 142.856 438.501 142.472C438.213 142.088 437.973 141.56 437.781 140.888C437.589 140.216 437.493 139.304 437.493 138.152C437.493 135.752 437.445 133.376 437.349 131.024C437.253 128.624 437.157 126.2 437.061 123.752C436.965 121.4 436.869 119.048 436.773 116.696C436.677 114.344 436.629 111.968 436.629 109.568C436.629 108.32 436.701 107 436.845 105.608C437.709 106.568 438.429 107.36 439.005 107.984C439.581 108.608 440.277 109.4 441.093 110.36C443.829 113.384 446.613 116.48 449.445 119.648C452.277 122.768 455.133 125.888 458.013 129.008C460.941 132.08 463.893 135.08 466.869 138.008C469.893 140.936 472.941 143.696 476.013 146.288C476.301 146.48 476.589 146.528 476.877 146.432C477.213 146.336 477.405 146.144 477.453 145.856C478.077 137.888 478.341 129.896 478.245 121.88C478.197 113.864 478.173 105.848 478.173 97.832C478.173 97.016 478.533 96.464 479.253 96.176C480.021 95.888 480.789 95.624 481.557 95.384C481.701 95.336 481.845 95.24 481.989 95.096C482.181 94.952 482.349 94.856 482.493 94.808Z" fill="#111111"/>
<path d="M89.6735 33.0067C86.2551 33.3304 79.1335 36.6481 76 38.2665C81.4694 36.6481 85.4005 45.4145 86.6824 50C89.1038 44.2007 93.0919 32.683 89.6735 33.0067Z" fill="#111111"/>
<path d="M485.673 33.0067C482.255 33.3304 475.134 36.6481 472 38.2665C477.469 36.6481 481.401 45.4145 482.682 50C485.104 44.2007 489.092 32.683 485.673 33.0067Z" fill="#111111"/>
</svg>
